<svg width="24" height="25" viewBox="0 0 24 25" fill="none" xmlns="http://www.w3.org/2000/svg">
<g id="fi-br-copy-alt" clip-path="url(#clip0_547_2049)">
<path id="Vector" d="M18 14.0001V8.07105C18.0034 7.21674 17.8372 6.37025 17.511 5.58064C17.1849 4.79102 16.7053 4.07398 16.1 3.47105L15.025 2.40005C14.4221 1.79479 13.705 1.31519 12.9154 0.989044C12.1258 0.662899 11.2793 0.496691 10.425 0.50005H7.5C6.0418 0.501638 4.64377 1.08161 3.61267 2.11272C2.58156 3.14382 2.00159 4.54185 2 6.00005V14.0001C2.00159 15.4583 2.58156 16.8563 3.61267 17.8874C4.64377 18.9185 6.0418 19.4985 7.5 19.5001H12.5C13.9582 19.4985 15.3562 18.9185 16.3873 17.8874C17.4184 16.8563 17.9984 15.4583 18 14.0001ZM5 14.0001V6.00005C5 5.33701 5.26339 4.70112 5.73223 4.23228C6.20107 3.76344 6.83696 3.50005 7.5 3.50005H10.429C10.6205 3.50306 10.8115 3.52179 11 3.55605V5.50005C11 6.03048 11.2107 6.53919 11.5858 6.91426C11.9609 7.28934 12.4696 7.50005 13 7.50005H14.944C14.9783 7.68853 14.997 7.87951 15 8.07105V14.0001C15 14.6631 14.7366 15.299 14.2678 15.7678C13.7989 16.2367 13.163 16.5001 12.5 16.5001H7.5C6.83696 16.5001 6.20107 16.2367 5.73223 15.7678C5.26339 15.299 5 14.6631 5 14.0001ZM23 9.00005V19.0001C22.9984 20.4583 22.4184 21.8563 21.3873 22.8874C20.3562 23.9185 18.9582 24.4985 17.5 24.5001H9.5C9.10218 24.5001 8.72064 24.342 8.43934 24.0607C8.15804 23.7794 8 23.3979 8 23.0001C8 22.6022 8.15804 22.2207 8.43934 21.9394C8.72064 21.6581 9.10218 21.5001 9.5 21.5001H17.5C18.163 21.5001 18.7989 21.2367 19.2678 20.7678C19.7366 20.299 20 19.6631 20 19.0001V9.00005C20 8.60223 20.158 8.2207 20.4393 7.93939C20.7206 7.65809 21.1022 7.50005 21.5 7.50005C21.8978 7.50005 22.2794 7.65809 22.5607 7.93939C22.842 8.2207 23 8.60223 23 9.00005Z" fill="#666560"/>
</g>
<defs>
<clipPath id="clip0_547_2049">
<rect width="24" height="24" fill="white" transform="translate(0 0.5)"/>
</clipPath>
</defs>
</svg>
