<svg width="120" height="120" viewBox="0 0 120 120" fill="none" xmlns="http://www.w3.org/2000/svg">
<g clip-path="url(#clip0_561_2483)">
<path d="M119.77 27.7092L77.68 69.7992C72.9869 74.4805 66.6287 77.1094 60 77.1094C53.3713 77.1094 47.0131 74.4805 42.32 69.7992L0.23 27.7092C0.16 28.4992 0 29.2142 0 29.9992V89.9992C0.00793929 96.6272 2.64441 102.981 7.3311 107.668C12.0178 112.355 18.372 114.991 25 114.999H95C101.628 114.991 107.982 112.355 112.669 107.668C117.356 102.981 119.992 96.6272 120 89.9992V29.9992C120 29.2142 119.84 28.4992 119.77 27.7092Z" fill="#FFDA49"/>
<path d="M70.6102 62.7291L116.28 17.0541C114.068 13.3857 110.947 10.3493 107.22 8.2378C103.493 6.12626 99.2841 5.01085 95.0002 4.99915H25.0002C20.7163 5.01085 16.5077 6.12626 12.7803 8.2378C9.05298 10.3493 5.93261 13.3857 3.72021 17.0541L49.3902 62.7291C52.2081 65.5357 56.0231 67.1115 60.0002 67.1115C63.9773 67.1115 67.7924 65.5357 70.6102 62.7291Z" fill="#FFDA49"/>
</g>
<g clip-path="url(#clip1_561_2483)">
<path d="M70.9999 46.833C68.7478 46.868 66.5448 47.4967 64.6134 48.6556C62.682 49.8144 61.0906 51.4623 59.9999 53.433C58.9092 51.4623 57.3178 49.8144 55.3864 48.6556C53.455 47.4967 51.252 46.868 48.9999 46.833C45.4098 46.989 42.0273 48.5595 39.5915 51.2015C37.1556 53.8434 35.8644 57.3421 35.9999 60.933C35.9999 70.027 45.5719 79.959 53.5999 86.693C55.3924 88.1993 57.6586 89.0251 59.9999 89.0251C62.3412 89.0251 64.6075 88.1993 66.3999 86.693C74.4279 79.959 83.9999 70.027 83.9999 60.933C84.1354 57.3421 82.8442 53.8434 80.4084 51.2015C77.9725 48.5595 74.59 46.989 70.9999 46.833Z" fill="#F06687"/>
</g>
<defs>
<clipPath id="clip0_561_2483">
<rect width="120" height="120" fill="white"/>
</clipPath>
<clipPath id="clip1_561_2483">
<rect width="48" height="48" fill="white" transform="translate(36 43)"/>
</clipPath>
</defs>
</svg>
