<svg width="353" height="52" viewBox="0 0 353 52" fill="none" xmlns="http://www.w3.org/2000/svg">
<rect width="353" height="52" rx="26" fill="white"/>
<path d="M153.712 21.288C153.712 21.6507 153.701 21.9813 153.68 22.28C153.658 22.568 153.626 22.8453 153.584 23.112C153.882 23.4213 154.197 23.7573 154.528 24.12C154.858 24.472 155.178 24.8347 155.488 25.208C155.808 25.5813 156.106 25.9493 156.384 26.312C156.661 26.6747 156.896 27.0053 157.088 27.304C157.173 27.4427 157.2 27.56 157.168 27.656C157.136 27.752 157.066 27.8427 156.96 27.928L155.84 28.792C155.658 28.5573 155.45 28.296 155.216 28.008C154.992 27.72 154.746 27.4213 154.48 27.112C154.213 26.8027 153.93 26.488 153.632 26.168C153.344 25.8373 153.056 25.5227 152.768 25.224C152.64 25.4373 152.496 25.6453 152.336 25.848C152.186 26.0507 152.016 26.2693 151.824 26.504C151.642 26.7173 151.445 26.936 151.232 27.16C151.018 27.384 150.8 27.608 150.576 27.832C150.352 28.056 150.133 28.2693 149.92 28.472C149.706 28.6747 149.509 28.856 149.328 29.016L147.968 27.752C148.373 27.3253 148.778 26.8933 149.184 26.456C149.589 26.0187 149.962 25.5707 150.304 25.112C150.538 24.792 150.73 24.488 150.88 24.2C151.04 23.9013 151.162 23.6027 151.248 23.304C151.333 23.0053 151.392 22.696 151.424 22.376C151.456 22.0453 151.472 21.6827 151.472 21.288V18.616H153.712V21.288ZM160.768 32.008H158.56V17.832H160.768V32.008ZM167.502 20.68C167.502 20.9147 167.48 21.1227 167.438 21.304C167.982 21.752 168.488 22.2213 168.958 22.712C169.438 23.192 169.891 23.688 170.318 24.2C170.392 24.2853 170.424 24.3813 170.414 24.488C170.414 24.5947 170.371 24.68 170.286 24.744L169.294 25.64C168.856 25.16 168.424 24.7067 167.998 24.28C167.571 23.8533 167.123 23.4427 166.654 23.048C166.398 23.3893 166.147 23.6827 165.902 23.928C165.72 24.1093 165.523 24.296 165.31 24.488C165.096 24.68 164.872 24.872 164.638 25.064C164.414 25.256 164.179 25.4427 163.934 25.624C163.688 25.7947 163.454 25.9493 163.23 26.088L162.142 24.728C162.494 24.472 162.867 24.1627 163.262 23.8C163.667 23.4373 164.056 23.0533 164.43 22.648C164.696 22.36 164.904 22.0613 165.054 21.752C165.214 21.432 165.294 21.0693 165.294 20.664V19.976H162.67V18.312H170.126V19.976H167.502V20.68ZM174.286 32.744H171.998V28.648H164.542V26.968H173.582C174.051 26.968 174.286 27.208 174.286 27.688V32.744ZM174.286 17.832V20.968H176.302V22.664H174.286V26.136H172.094V17.832H174.286ZM186.404 17.832H188.612V23.016H190.708V24.728H188.612V32.008H186.404V17.832ZM185.188 25.72C185.188 26.1893 185.097 26.632 184.916 27.048C184.745 27.464 184.495 27.8267 184.164 28.136C183.844 28.4453 183.444 28.696 182.964 28.888C182.495 29.0693 181.961 29.16 181.364 29.16C180.767 29.16 180.228 29.0693 179.748 28.888C179.279 28.696 178.879 28.4453 178.548 28.136C178.217 27.8267 177.967 27.464 177.796 27.048C177.625 26.632 177.54 26.1893 177.54 25.72C177.54 25.2613 177.625 24.824 177.796 24.408C177.967 23.9813 178.217 23.6133 178.548 23.304C178.879 22.9947 179.279 22.7493 179.748 22.568C180.228 22.376 180.767 22.28 181.364 22.28C181.961 22.28 182.495 22.376 182.964 22.568C183.444 22.7493 183.844 22.9947 184.164 23.304C184.495 23.6133 184.745 23.9813 184.916 24.408C185.097 24.824 185.188 25.2613 185.188 25.72ZM182.532 17.88V18.952C182.532 19.112 182.505 19.2987 182.452 19.512C182.399 19.7253 182.297 19.896 182.148 20.024H185.62V21.672H176.9V20.024H180.084C180.137 19.9387 180.18 19.8053 180.212 19.624C180.255 19.432 180.276 19.2453 180.276 19.064V17.88H182.532ZM179.764 25.72C179.764 26.2213 179.903 26.648 180.18 27C180.457 27.3413 180.852 27.512 181.364 27.512C181.876 27.512 182.271 27.3413 182.548 27C182.825 26.648 182.964 26.2213 182.964 25.72C182.964 25.2187 182.825 24.7973 182.548 24.456C182.271 24.104 181.876 23.928 181.364 23.928C180.852 23.928 180.457 24.104 180.18 24.456C179.903 24.7973 179.764 25.2187 179.764 25.72ZM203.498 32.008H201.29V17.832H203.498V32.008ZM196.65 21.16C196.65 20.9467 196.608 20.792 196.522 20.696C196.437 20.6 196.272 20.552 196.026 20.552H191.818V18.856H196.986C197.637 18.856 198.117 19.016 198.426 19.336C198.746 19.656 198.906 20.072 198.906 20.584V21.08C198.906 21.976 198.752 22.84 198.442 23.672C198.144 24.4933 197.733 25.2613 197.21 25.976C196.698 26.6907 196.101 27.3413 195.418 27.928C194.736 28.5147 194.021 29.016 193.274 29.432L192.17 28.056C193.557 27.0533 194.65 25.9707 195.45 24.808C196.25 23.6453 196.65 22.4293 196.65 21.16Z" fill="black"/>
<path d="M228.061 22.5249L224.475 18.9389C224.194 18.6576 223.812 18.4997 223.414 18.4998C223.016 18.4998 222.635 18.658 222.354 18.9394C222.072 19.2208 221.914 19.6024 221.914 20.0002C221.914 20.3981 222.073 20.7796 222.354 21.0609L224.793 23.4999H216C215.602 23.4999 215.221 23.6579 214.939 23.9392C214.658 24.2205 214.5 24.6021 214.5 24.9999C214.5 25.3977 214.658 25.7792 214.939 26.0605C215.221 26.3418 215.602 26.4999 216 26.4999H224.793L222.354 28.9389C222.073 29.2201 221.914 29.6017 221.914 29.9995C221.914 30.3974 222.072 30.779 222.354 31.0604C222.635 31.3418 223.016 31.4999 223.414 31.5C223.812 31.5001 224.194 31.3421 224.475 31.0609L228.061 27.4749C228.716 26.8178 229.084 25.9278 229.084 24.9999C229.084 24.072 228.716 23.1819 228.061 22.5249Z" fill="#433F3E"/>
</svg>
