<svg width="18" height="18" viewBox="0 0 18 18" fill="none" xmlns="http://www.w3.org/2000/svg">
<g id="fi-sr-phone-call" clip-path="url(#clip0_538_1527)">
<path id="Vector" d="M17.2502 8.24973C17.0513 8.24973 16.8605 8.17072 16.7199 8.03006C16.5792 7.88941 16.5002 7.69865 16.5002 7.49973C16.4986 5.90892 15.866 4.38372 14.7411 3.25885C13.6162 2.13397 12.091 1.50132 10.5002 1.49973C10.3013 1.49973 10.1105 1.42072 9.96989 1.28006C9.82924 1.13941 9.75022 0.948645 9.75022 0.749733C9.75022 0.55082 9.82924 0.360055 9.96989 0.219403C10.1105 0.0787505 10.3013 -0.000267165 10.5002 -0.000267165C12.4887 0.00191653 14.3951 0.792794 15.8011 2.19884C17.2072 3.60489 17.998 5.51128 18.0002 7.49973C18.0002 7.69865 17.9212 7.88941 17.7806 8.03006C17.6399 8.17072 17.4491 8.24973 17.2502 8.24973ZM15.0002 7.49973C15.0002 6.30626 14.5261 5.16167 13.6822 4.31775C12.8383 3.47384 11.6937 2.99973 10.5002 2.99973C10.3013 2.99973 10.1105 3.07875 9.96989 3.2194C9.82924 3.36006 9.75022 3.55082 9.75022 3.74973C9.75022 3.94865 9.82924 4.13941 9.96989 4.28006C10.1105 4.42072 10.3013 4.49973 10.5002 4.49973C11.2959 4.49973 12.0589 4.8158 12.6215 5.37841C13.1842 5.94102 13.5002 6.70408 13.5002 7.49973C13.5002 7.69865 13.5792 7.88941 13.7199 8.03006C13.8605 8.17072 14.0513 8.24973 14.2502 8.24973C14.4491 8.24973 14.6399 8.17072 14.7806 8.03006C14.9212 7.88941 15.0002 7.69865 15.0002 7.49973ZM16.6375 16.6227L17.32 15.836C17.7544 15.4002 17.9983 14.8099 17.9983 14.1946C17.9983 13.5793 17.7544 12.989 17.32 12.5532C17.2967 12.53 15.4922 11.1417 15.4922 11.1417C15.0591 10.7295 14.4839 10.4999 13.8859 10.5008C13.288 10.5016 12.7134 10.7328 12.2815 11.1462L10.852 12.3507C9.6851 11.8678 8.62514 11.1591 7.73293 10.2654C6.84074 9.37163 6.13388 8.31043 5.65297 7.14273L6.85297 5.71773C7.26676 5.28586 7.49819 4.71114 7.49917 4.11304C7.50015 3.51493 7.27059 2.93945 6.85822 2.50623C6.85822 2.50623 5.46847 0.703983 5.44522 0.680733C5.01731 0.250044 4.43713 0.00499935 3.83004 -0.00145608C3.22295 -0.0079115 2.63769 0.224741 2.20072 0.646233L1.33822 1.39623C-3.75728 7.30773 7.21522 18.1955 13.3217 17.9997C13.9384 18.0033 14.5495 17.8833 15.119 17.6468C15.6884 17.4103 16.2048 17.0621 16.6375 16.6227Z" fill="#99C93C"/>
</g>
<defs>
<clipPath id="clip0_538_1527">
<rect width="18" height="18" fill="white"/>
</clipPath>
</defs>
</svg>
