<svg width="172" height="60" viewBox="0 0 172 60" fill="none" xmlns="http://www.w3.org/2000/svg">
<g filter="url(#filter0_d_470_1380)">
<rect x="6" y="4" width="160" height="48" rx="20" fill="white" shape-rendering="crispEdges"/>
<g clip-path="url(#clip0_470_1380)">
<path d="M53.454 21.5419L45.036 29.9599C44.0974 30.8961 42.8257 31.4219 41.5 31.4219C40.1743 31.4219 38.9026 30.8961 37.964 29.9599L29.546 21.5419C29.532 21.6999 29.5 21.8429 29.5 21.9999V33.9999C29.5016 35.3255 30.0289 36.5963 30.9662 37.5337C31.9036 38.471 33.1744 38.9983 34.5 38.9999H48.5C49.8256 38.9983 51.0964 38.471 52.0338 37.5337C52.9711 36.5963 53.4984 35.3255 53.5 33.9999V21.9999C53.5 21.8429 53.468 21.6999 53.454 21.5419Z" fill="#7D6948"/>
<path d="M43.6221 28.5459L52.7561 19.4109C52.3137 18.6772 51.6896 18.0699 50.9441 17.6476C50.1986 17.2253 49.3569 17.0022 48.5001 16.9999H34.5001C33.6434 17.0022 32.8016 17.2253 32.0562 17.6476C31.3107 18.0699 30.6866 18.6772 30.2441 19.4109L39.3781 28.5459C39.9417 29.1072 40.7047 29.4223 41.5001 29.4223C42.2956 29.4223 43.0586 29.1072 43.6221 28.5459Z" fill="#7D6948"/>
</g>
<path d="M78.134 34.424H69.862C69.2647 34.424 68.8113 34.2693 68.502 33.96C68.2033 33.6613 68.054 33.2293 68.054 32.664V30.024H70.31V32.264C70.31 32.4133 70.342 32.536 70.406 32.632C70.4807 32.7173 70.614 32.76 70.806 32.76H78.134V34.424ZM72.102 31.208V28.808H66.23V27.144H79.654V28.808H74.39V31.208H72.102ZM77.638 25.736C76.9767 25.8213 76.3207 25.8907 75.67 25.944C75.03 25.9867 74.4113 26.024 73.814 26.056C73.2167 26.0773 72.6567 26.0933 72.134 26.104C71.6113 26.1147 71.142 26.12 70.726 26.12C69.8513 26.12 69.2113 25.944 68.806 25.592C68.4113 25.24 68.214 24.6853 68.214 23.928V20.312H76.934C77.4033 20.312 77.638 20.5307 77.638 20.968V25.736ZM71.11 24.472C71.4193 24.472 71.7287 24.472 72.038 24.472C72.358 24.4613 72.6887 24.4507 73.03 24.44C73.3713 24.4293 73.7393 24.4187 74.134 24.408C74.5287 24.3867 74.9607 24.3653 75.43 24.344V21.96H70.422V23.848C70.422 24.0933 70.4807 24.2587 70.598 24.344C70.726 24.4293 70.8967 24.472 71.11 24.472ZM85.6923 23.288C85.6923 23.8853 85.6443 24.44 85.5483 24.952C85.8363 25.2613 86.1403 25.608 86.4603 25.992C86.7909 26.3653 87.1109 26.7547 87.4203 27.16C87.7296 27.5547 88.0176 27.944 88.2843 28.328C88.5616 28.712 88.8016 29.0587 89.0043 29.368C89.0896 29.5067 89.1163 29.624 89.0843 29.72C89.0523 29.816 88.9829 29.9067 88.8763 29.992L87.7243 30.808C87.5429 30.5733 87.3403 30.3067 87.1163 30.008C86.8923 29.7093 86.6523 29.4 86.3963 29.08C86.1403 28.7493 85.8736 28.4187 85.5963 28.088C85.3296 27.7573 85.0523 27.4373 84.7643 27.128C84.4976 27.5973 84.1776 28.056 83.8043 28.504C83.4629 28.9307 83.0843 29.3787 82.6683 29.848C82.2629 30.3067 81.8789 30.696 81.5163 31.016L80.1562 29.832C80.5616 29.384 80.9403 28.936 81.2923 28.488C81.6549 28.0293 81.9856 27.5867 82.2843 27.16C82.5189 26.8293 82.7109 26.5147 82.8603 26.216C83.0096 25.9173 83.1269 25.6187 83.2123 25.32C83.2976 25.0213 83.3563 24.7067 83.3883 24.376C83.4309 24.0453 83.4523 23.6827 83.4523 23.288V22.552H80.6203V20.856H88.5243V22.552H85.6923V23.288ZM90.0603 19.832H92.2683V25H94.3643V26.728H92.2683V34.008H90.0603V19.832ZM111.375 20.536V27.88C110.746 27.944 110.122 27.9973 109.503 28.04C108.895 28.072 108.298 28.0987 107.711 28.12V30.6H113.263V32.312H99.8394V30.6H105.407V28.168H104.223C102.463 28.168 101.583 27.336 101.583 25.672V20.536H103.823V22.6H109.135V20.536H111.375ZM103.823 24.376V25.368C103.823 25.7627 103.898 26.0453 104.047 26.216C104.207 26.3867 104.49 26.472 104.895 26.472C105.461 26.472 106.074 26.4667 106.735 26.456C107.397 26.4453 108.197 26.424 109.135 26.392V24.376H103.823ZM124.918 19.832H127.046V34.024H124.918V26.632H123.43V33.864H121.366V29.832C120.758 30.0347 120.128 30.1947 119.478 30.312C118.827 30.4187 118.267 30.472 117.798 30.472C117.36 30.472 116.96 30.4293 116.598 30.344C116.235 30.248 115.926 30.104 115.67 29.912C115.414 29.7093 115.211 29.4533 115.062 29.144C114.923 28.824 114.854 28.4347 114.854 27.976V20.856H117.014V27.816C117.014 28.1467 117.099 28.3867 117.27 28.536C117.451 28.6747 117.718 28.744 118.07 28.744C118.518 28.744 119.024 28.7067 119.59 28.632C120.166 28.5467 120.758 28.44 121.366 28.312V19.992H123.43V24.84H124.918V19.832ZM140.764 34.008H138.556V19.832H140.764V34.008ZM133.916 23.16C133.916 22.9467 133.873 22.792 133.788 22.696C133.703 22.6 133.537 22.552 133.292 22.552H129.084V20.856H134.252C134.903 20.856 135.383 21.016 135.692 21.336C136.012 21.656 136.172 22.072 136.172 22.584V23.08C136.172 23.976 136.017 24.84 135.708 25.672C135.409 26.4933 134.999 27.2613 134.476 27.976C133.964 28.6907 133.367 29.3413 132.684 29.928C132.001 30.5147 131.287 31.016 130.54 31.432L129.436 30.056C130.823 29.0533 131.916 27.9707 132.716 26.808C133.516 25.6453 133.916 24.4293 133.916 23.16Z" fill="#666560"/>
</g>
<defs>
<filter id="filter0_d_470_1380" x="0" y="0" width="172" height="60" filterUnits="userSpaceOnUse" color-interpolation-filters="sRGB">
<feFlood flood-opacity="0" result="BackgroundImageFix"/>
<feColorMatrix in="SourceAlpha" type="matrix" values="0 0 0 0 0 0 0 0 0 0 0 0 0 0 0 0 0 0 127 0" result="hardAlpha"/>
<feOffset dy="2"/>
<feGaussianBlur stdDeviation="3"/>
<feComposite in2="hardAlpha" operator="out"/>
<feColorMatrix type="matrix" values="0 0 0 0 0 0 0 0 0 0 0 0 0 0 0 0 0 0 0.1 0"/>
<feBlend mode="normal" in2="BackgroundImageFix" result="effect1_dropShadow_470_1380"/>
<feBlend mode="normal" in="SourceGraphic" in2="effect1_dropShadow_470_1380" result="shape"/>
</filter>
<clipPath id="clip0_470_1380">
<rect width="24" height="24" fill="white" transform="translate(29.5 16)"/>
</clipPath>
</defs>
</svg>
