<svg width="172" height="60" viewBox="0 0 172 60" fill="none" xmlns="http://www.w3.org/2000/svg">
<g filter="url(#filter0_d_470_1375)">
<rect x="6" y="4" width="160" height="48" rx="20" fill="white" shape-rendering="crispEdges"/>
<g clip-path="url(#clip0_470_1375)">
<path d="M59.9998 26.9996C59.7346 26.9996 59.4802 26.8942 59.2927 26.7067C59.1052 26.5191 58.9998 26.2648 58.9998 25.9996C58.9977 23.8785 58.1542 21.8449 56.6543 20.345C55.1545 18.8452 53.1209 18.0017 50.9998 17.9996C50.7346 17.9996 50.4802 17.8942 50.2927 17.7067C50.1052 17.5191 49.9998 17.2648 49.9998 16.9996C49.9998 16.7343 50.1052 16.48 50.2927 16.2925C50.4802 16.1049 50.7346 15.9996 50.9998 15.9996C53.6511 16.0025 56.1929 17.057 58.0677 18.9317C59.9424 20.8064 60.9969 23.3483 60.9998 25.9996C60.9998 26.2648 60.8945 26.5191 60.7069 26.7067C60.5194 26.8942 60.265 26.9996 59.9998 26.9996ZM56.9998 25.9996C56.9998 24.4083 56.3677 22.8821 55.2424 21.7569C54.1172 20.6317 52.5911 19.9996 50.9998 19.9996C50.7346 19.9996 50.4802 20.1049 50.2927 20.2925C50.1052 20.48 49.9998 20.7343 49.9998 20.9996C49.9998 21.2648 50.1052 21.5191 50.2927 21.7067C50.4802 21.8942 50.7346 21.9996 50.9998 21.9996C52.0607 21.9996 53.0781 22.421 53.8282 23.1711C54.5784 23.9213 54.9998 24.9387 54.9998 25.9996C54.9998 26.2648 55.1052 26.5191 55.2927 26.7067C55.4802 26.8942 55.7346 26.9996 55.9998 26.9996C56.265 26.9996 56.5194 26.8942 56.7069 26.7067C56.8945 26.5191 56.9998 26.2648 56.9998 25.9996ZM59.1828 38.1636L60.0928 37.1146C60.672 36.5335 60.9973 35.7465 60.9973 34.9261C60.9973 34.1056 60.672 33.3186 60.0928 32.7376C60.0618 32.7066 57.6558 30.8556 57.6558 30.8556C57.0784 30.3059 56.3113 29.9998 55.5141 30.0009C54.7169 30.0021 53.9507 30.3103 53.3748 30.8616L51.4688 32.4676C49.913 31.8237 48.4997 30.8787 47.3101 29.6871C46.1205 28.4954 45.178 27.0805 44.5368 25.5236L46.1368 23.6236C46.6885 23.0477 46.9971 22.2814 46.9984 21.484C46.9997 20.6865 46.6936 19.9192 46.1438 19.3416C46.1438 19.3416 44.2908 16.9386 44.2598 16.9076C43.6893 16.3333 42.9157 16.0066 42.1062 15.998C41.2968 15.9894 40.5164 16.2996 39.9338 16.8616L38.7838 17.8616C31.9898 25.7436 46.6198 40.2606 54.7618 39.9996C55.584 40.0043 56.3988 39.8443 57.1581 39.529C57.9174 39.2136 58.6059 38.7494 59.1828 38.1636Z" fill="#99C93C"/>
</g>
<path d="M78.8452 23.32C78.8452 23.5547 78.8239 23.7627 78.7812 23.944C79.3252 24.392 79.8319 24.8613 80.3012 25.352C80.7812 25.832 81.2345 26.328 81.6612 26.84C81.7359 26.9253 81.7679 27.0213 81.7572 27.128C81.7572 27.2347 81.7145 27.32 81.6292 27.384L80.6372 28.28C80.1999 27.8 79.7679 27.3467 79.3412 26.92C78.9145 26.4933 78.4665 26.0827 77.9972 25.688C77.7412 26.0293 77.4905 26.3227 77.2452 26.568C77.0639 26.7493 76.8665 26.936 76.6532 27.128C76.4399 27.32 76.2159 27.512 75.9812 27.704C75.7572 27.896 75.5225 28.0827 75.2772 28.264C75.0319 28.4347 74.7972 28.5893 74.5732 28.728L73.4852 27.368C73.8372 27.112 74.2105 26.8027 74.6052 26.44C75.0105 26.0773 75.3999 25.6933 75.7732 25.288C76.0399 25 76.2479 24.7013 76.3972 24.392C76.5572 24.072 76.6372 23.7093 76.6372 23.304V22.136H74.0132V20.472H81.4692V22.136H78.8452V23.32ZM81.1172 23.368H83.7572V19.832H85.9492V30.184H83.7572V25.048H81.1172V23.368ZM86.2692 34.424H78.4932C77.7892 34.424 77.2452 34.2747 76.8612 33.976C76.4879 33.6773 76.3012 33.1867 76.3012 32.504V29.464H78.5892V32.072C78.5892 32.3067 78.6265 32.4773 78.7012 32.584C78.7759 32.6907 78.9465 32.744 79.2132 32.744H86.2692V34.424ZM97.5874 19.832H99.7954V25.56H101.731V27.288H99.7954V34.008H97.5874V30.84C97.2461 30.9467 96.8568 31.0533 96.4194 31.16C95.9821 31.256 95.5181 31.3413 95.0274 31.416C94.5368 31.4907 94.0301 31.5547 93.5074 31.608C92.9954 31.6507 92.4834 31.672 91.9714 31.672H87.6834V29.976H91.3154V28.152C90.9314 28.0667 90.5688 27.9387 90.2274 27.768C89.8968 27.5867 89.6088 27.3627 89.3634 27.096C89.1181 26.8293 88.9208 26.52 88.7714 26.168C88.6328 25.816 88.5634 25.4267 88.5634 25C88.5634 24.3813 88.7501 23.8373 89.1234 23.368H87.9394V21.704H91.0434C91.0968 21.64 91.1448 21.5173 91.1874 21.336C91.2301 21.144 91.2514 20.9573 91.2514 20.776V19.88H93.4594V20.728C93.4594 20.888 93.4274 21.064 93.3634 21.256C93.3101 21.4373 93.2034 21.5867 93.0434 21.704H96.6914V23.368H95.5074C95.8808 23.8373 96.0674 24.3813 96.0674 25C96.0674 25.4053 95.9981 25.7787 95.8594 26.12C95.7314 26.4613 95.5501 26.7653 95.3154 27.032C95.0914 27.288 94.8248 27.5067 94.5154 27.688C94.2061 27.8693 93.8701 28.008 93.5074 28.104V29.912C93.8381 29.8907 94.1848 29.864 94.5474 29.832C94.9101 29.7893 95.2674 29.7467 95.6194 29.704C95.9821 29.6507 96.3288 29.5973 96.6594 29.544C97.0008 29.48 97.3101 29.416 97.5874 29.352V19.832ZM90.7234 25C90.7234 25.192 90.7554 25.384 90.8194 25.576C90.8834 25.768 90.9794 25.944 91.1074 26.104C91.2461 26.2533 91.4114 26.376 91.6034 26.472C91.8061 26.5573 92.0408 26.6 92.3074 26.6C92.5741 26.6 92.8088 26.5573 93.0114 26.472C93.2141 26.376 93.3794 26.2533 93.5074 26.104C93.6461 25.944 93.7474 25.768 93.8114 25.576C93.8754 25.384 93.9074 25.192 93.9074 25C93.9074 24.808 93.8754 24.616 93.8114 24.424C93.7474 24.232 93.6461 24.0613 93.5074 23.912C93.3794 23.752 93.2141 23.6293 93.0114 23.544C92.8088 23.448 92.5741 23.4 92.3074 23.4C92.0408 23.4 91.8061 23.448 91.6034 23.544C91.4114 23.6293 91.2461 23.752 91.1074 23.912C90.9794 24.0613 90.8834 24.232 90.8194 24.424C90.7554 24.616 90.7234 24.808 90.7234 25ZM119.623 33.128V34.744H110.919C110.535 34.744 110.252 34.6587 110.071 34.488C109.9 34.328 109.815 34.0667 109.815 33.704V30.424H117.111V29.384H109.895V27.768H118.695C119.164 27.768 119.399 28.008 119.399 28.488V31.672C119.399 31.9067 119.281 32.024 119.047 32.024H112.103V32.776C112.103 33.0107 112.204 33.128 112.407 33.128H119.623ZM112.263 22.152C112.263 22.0347 112.231 21.944 112.167 21.88C112.113 21.8053 112.017 21.768 111.879 21.768H107.783V20.152H113.223C113.628 20.152 113.937 20.2587 114.151 20.472C114.364 20.6853 114.471 20.968 114.471 21.32V21.736C114.471 22.2587 114.375 22.744 114.183 23.192C113.991 23.6293 113.735 24.0347 113.415 24.408C113.105 24.7813 112.748 25.1227 112.343 25.432C111.937 25.7413 111.521 26.0187 111.095 26.264C110.668 26.5093 110.241 26.728 109.815 26.92C109.399 27.1013 109.02 27.2613 108.679 27.4L107.911 25.96C108.369 25.7253 108.855 25.4747 109.367 25.208C109.879 24.9307 110.348 24.632 110.775 24.312C111.212 23.992 111.569 23.656 111.847 23.304C112.124 22.9413 112.263 22.5573 112.263 22.152ZM114.599 22.808H117.207V19.832H119.399V27.096H117.207V24.504H114.599V22.808ZM133.397 34.008H131.189V19.832H133.397V34.008ZM126.549 23.16C126.549 22.9467 126.506 22.792 126.421 22.696C126.335 22.6 126.17 22.552 125.925 22.552H121.717V20.856H126.885C127.535 20.856 128.015 21.016 128.325 21.336C128.645 21.656 128.805 22.072 128.805 22.584V23.08C128.805 23.976 128.65 24.84 128.341 25.672C128.042 26.4933 127.631 27.2613 127.109 27.976C126.597 28.6907 125.999 29.3413 125.317 29.928C124.634 30.5147 123.919 31.016 123.173 31.432L122.069 30.056C123.455 29.0533 124.549 27.9707 125.349 26.808C126.149 25.6453 126.549 24.4293 126.549 23.16Z" fill="#666560"/>
</g>
<defs>
<filter id="filter0_d_470_1375" x="0" y="0" width="172" height="60" filterUnits="userSpaceOnUse" color-interpolation-filters="sRGB">
<feFlood flood-opacity="0" result="BackgroundImageFix"/>
<feColorMatrix in="SourceAlpha" type="matrix" values="0 0 0 0 0 0 0 0 0 0 0 0 0 0 0 0 0 0 127 0" result="hardAlpha"/>
<feOffset dy="2"/>
<feGaussianBlur stdDeviation="3"/>
<feComposite in2="hardAlpha" operator="out"/>
<feColorMatrix type="matrix" values="0 0 0 0 0 0 0 0 0 0 0 0 0 0 0 0 0 0 0.1 0"/>
<feBlend mode="normal" in2="BackgroundImageFix" result="effect1_dropShadow_470_1375"/>
<feBlend mode="normal" in="SourceGraphic" in2="effect1_dropShadow_470_1375" result="shape"/>
</filter>
<clipPath id="clip0_470_1375">
<rect width="24" height="24" fill="white" transform="translate(37 16)"/>
</clipPath>
</defs>
</svg>
