<svg width="15" height="14" viewBox="0 0 15 14" fill="none" xmlns="http://www.w3.org/2000/svg">
<path d="M9.83461 5.79161L7.22824 3.24384C7.06831 3.08758 6.85144 2.99983 6.62532 2.99988C6.3992 2.99993 6.18237 3.08778 6.02252 3.24412C5.86267 3.40045 5.7729 3.61245 5.77295 3.83348C5.773 4.05451 5.86288 4.26647 6.0228 4.42273L8.62918 6.96995C8.65564 6.99575 8.67664 7.02641 8.69096 7.06015C8.70529 7.0939 8.71266 7.13008 8.71266 7.16662C8.71266 7.20315 8.70529 7.23933 8.69096 7.27308C8.67664 7.30683 8.65564 7.33748 8.62918 7.36328L6.0228 9.9105C5.86288 10.0668 5.773 10.2787 5.77295 10.4998C5.7729 10.7208 5.86267 10.9328 6.02252 11.0891C6.18237 11.2454 6.3992 11.3333 6.62532 11.3334C6.85144 11.3334 7.06831 11.2457 7.22824 11.0894L9.83461 8.54162C10.207 8.1766 10.4161 7.68212 10.4161 7.16662C10.4161 6.65111 10.207 6.15663 9.83461 5.79161V5.79161Z" fill="#9C8480"/>
</svg>
