<svg width="16" height="17" viewBox="0 0 16 17" fill="none" xmlns="http://www.w3.org/2000/svg">
<g id="fi-ss-heart" clip-path="url(#clip0_542_2055)">
<path id="Vector" d="M11.667 1.11145C10.9163 1.12313 10.1819 1.33269 9.53814 1.71896C8.89434 2.10524 8.36387 2.65456 8.0003 3.31145C7.63672 2.65456 7.10625 2.10524 6.46246 1.71896C5.81866 1.33269 5.08433 1.12313 4.33363 1.11145C3.13693 1.16344 2.00944 1.68695 1.19749 2.56761C0.385537 3.44826 -0.0448693 4.61447 0.000297715 5.81145C0.000297715 10.3281 7.3043 15.5448 7.61496 15.7661L8.0003 16.0388L8.38563 15.7661C8.6963 15.5461 16.0003 10.3281 16.0003 5.81145C16.0455 4.61447 15.6151 3.44826 14.8031 2.56761C13.9912 1.68695 12.8637 1.16344 11.667 1.11145V1.11145Z" fill="#FFDA49"/>
</g>
<defs>
<clipPath id="clip0_542_2055">
<rect width="16" height="16" fill="white" transform="translate(0 0.5)"/>
</clipPath>
</defs>
</svg>
